<?xml version="1.0" encoding="UTF-8" standalone="no"?>
<svg
   width="500"
   height="500"
   viewBox="0 0 500 500"
   version="1.1"
   id="svg2"
   xmlns="http://www.w3.org/2000/svg"
   xmlns:svg="http://www.w3.org/2000/svg">
    <path
       style="fill:#aa0022;stroke:#1a002a;stroke-width:90;stroke-linejoin:round;paint-order:stroke markers fill"
       d="M 250,45 C 137,45 45,137 45,250 45,363 137,454 250,454 362,454 454,362 454,249 454,137 362,45 250,45 Z m 99,173 -69,119 c -14,26 -46,26 -61,0 l -69,-120 c -15,-27 -1,-54 28,-54 l 142,-0 c 30,-0 44,27 28,54 z"
       id="bg" />
    <path
       style="fill:#1a002a"
       d="m 169,144 c -21,0 -40,10 -49,27 -8,17 -7,38 3,56 v 0 l 72,125 c 10,18 29,29 48,29 19,0 37,-11 48,-29 l 73,-124 c 1,-2 2,-5 2,-9 l -2,9 c 10,-18 12,-39 3,-56 -8,-17 -27,-28 -49,-28 z"
       id="over" />
</svg>
