<svg xmlns="http://www.w3.org/2000/svg" width="24" height="24" viewBox="0 0 24 24"><g fill="none"><path fill="#66e1ff" d="M23 7.215V19.65a1.913 1.913 0 0 1-1.913 1.913H2.913A1.914 1.914 0 0 1 1 19.65V7.215z"/><path fill="#c2f3ff" d="M2.913 21.563h1.913L19.174 7.215H1V19.65a1.913 1.913 0 0 0 1.913 1.913"/><path fill="#fff" d="M23 7.215H1v-2.87a1.913 1.913 0 0 1 1.913-1.912h18.174A1.913 1.913 0 0 1 23 4.346z"/><path stroke="#191919" stroke-linecap="round" stroke-linejoin="round" d="M21.087 2.437H2.913A1.913 1.913 0 0 0 1 4.35v15.304a1.913 1.913 0 0 0 1.913 1.913h18.174A1.913 1.913 0 0 0 23 19.654V4.35a1.913 1.913 0 0 0-1.913-1.913M1 7.22h22" stroke-width="1"/><path fill="#fff" stroke="#191919" stroke-linecap="round" stroke-linejoin="round" d="M18.738 15.128a2.66 2.66 0 0 0-2.8-2.608a3.79 3.79 0 0 0-3.417-2.094a3.73 3.73 0 0 0-3.773 3.443a2.008 2.008 0 0 0-2.445 1.913c0 1.99 2.163 1.955 2.163 1.955h7.843a2.734 2.734 0 0 0 2.429-2.61" stroke-width="1"/><path stroke="#191919" d="M7.217 5.067a.24.24 0 0 1 0-.478m0 .478a.24.24 0 0 0 0-.478m-2.869.478a.24.24 0 0 1 0-.478m0 .478a.24.24 0 0 0 0-.478m5.739.478a.24.24 0 0 1 0-.478" stroke-width="1"/><path stroke="#191919" d="M10.086 5.067a.24.24 0 1 0 0-.478" stroke-width="1"/></g></svg>