<svg xmlns="http://www.w3.org/2000/svg" width="128" height="128" viewBox="0 0 24 24"><path fill="#8877ff" d="M10.98 12.959q0 .897-.509 1.42q-.51.52-1.456.52q-.34 0-.643-.072q-.303-.073-.546-.194q-.291-.17-.328-.364q-.036-.194-.036-.388V9.804q0-.219.134-.328q.133-.109.4-.109t.4.11q.134.108.134.327v1.553q.145-.097.352-.158q.206-.06.424-.06q.728 0 1.202.473q.473.473.473 1.347zm-2.45.946q.097.073.23.097q.134.024.255.024q.413 0 .631-.255q.219-.254.219-.74q0-.485-.219-.752q-.218-.267-.607-.267q-.145 0-.279.049q-.133.048-.23.121zm4.465-3.81q0 .267-.182.449t-.449.182q-.291 0-.473-.182t-.182-.449q0-.291.182-.461t.473-.17q.267 0 .449.17t.182.461m-.097 1.48v2.864q0 .218-.134.327q-.133.11-.4.11t-.413-.11q-.145-.109-.145-.327v-2.864q0-.218.145-.327q.146-.11.413-.11t.4.11t.134.327m3.276 2.33q.218 0 .303.182t.085.328q0 .072-.048.157q-.049.085-.146.158q-.146.073-.364.121q-.218.049-.437.049q-.437 0-.703-.158q-.267-.158-.413-.4q-.121-.219-.146-.473q-.024-.255-.024-.546v-1.19h-.291q-.219 0-.328-.12q-.109-.122-.109-.34t.11-.34q.108-.122.327-.122h.291v-.703q0-.219.134-.328q.133-.11.4-.11t.4.11q.134.11.134.328v.703h.68q.218 0 .327.122q.11.121.11.34q0 .218-.11.34q-.11.12-.328.12h-.68v1.19q0 .12.013.254t.06.255q.05.073.122.11q.073.036.194.036q.049 0 .121-.012q.073-.013.122-.013q.048-.024.097-.036q.048-.012.097-.012M.012 12.012q0-2.5.947-4.683q.946-2.184 2.572-3.81T7.34.946Q9.525 0 12 0t4.66.946q2.183.947 3.821 2.573t2.56 3.81q.947 2.184.947 4.683q0 2.475-.947 4.66q-.922 2.183-2.56 3.81q-1.638 1.625-3.822 2.572Q14.475 24 12 24t-4.66-.946q-2.183-.947-3.81-2.573q-1.625-1.626-2.571-3.81t-.947-4.659M12 .874q-2.305 0-4.32.873q-2.038.874-3.542 2.39T1.759 7.668Q.886 9.707.886 12.012t.873 4.32q.874 2.038 2.379 3.543q1.504 1.504 3.542 2.378q2.015.873 4.32.873t4.344-.873q2.014-.874 3.518-2.378t2.379-3.543q.898-2.015.898-4.32t-.898-4.344q-.874-2.014-2.379-3.53t-3.518-2.39Q14.305.873 12 .873ZM8.384 3.422q.073.17.024.34t-.218.266q-1.383.728-2.342 1.614q-.958.886-1.735 2.342q-.097.17-.267.218q-.17.049-.315-.024q-.17-.097-.219-.267t.025-.315q.849-1.602 1.905-2.585q1.055-.983 2.536-1.76q.17-.096.34-.036t.266.207"/></svg>