<svg xmlns="http://www.w3.org/2000/svg" width="128" height="128" viewBox="0 0 14 14"><g fill="none"><path fill="#d7e0ff" d="M.5 7a6.5 6.5 0 1 0 13 0a6.5 6.5 0 1 0-13 0"/><path stroke="#4147d5" stroke-linecap="round" stroke-linejoin="round" d="M.5 7a6.5 6.5 0 1 0 13 0a6.5 6.5 0 1 0-13 0"/><path stroke="#4147d5" stroke-linecap="round" stroke-linejoin="round" d="M6.046 5.6a1.05 1.05 0 0 0-.99-.7h-.7c-.58 0-1.05.47-1.05 1.05v2.1c0 .58.47 1.05 1.05 1.05h.7c.457 0 .846-.292.99-.7m4.648-2.8a1.05 1.05 0 0 0-.99-.7h-.7c-.58 0-1.05.47-1.05 1.05v2.1c0 .58.47 1.05 1.05 1.05h.7c.457 0 .846-.292.99-.7"/></g></svg>