<svg xmlns="http://www.w3.org/2000/svg" width="128" height="128" viewBox="0 0 24 24"><path fill="#8877ff" d="M19.705 2.147v19.706H0V2.147zM.141 21.712h19.423V2.288H.141zm2.561-10.444q.642 0 .996.338t.393.768h-.446a.93.93 0 0 0-.303-.517q-.225-.191-.635-.191q-.5 0-.808.352q-.306.349-.306 1.074q0 .594.276.964q.279.368.828.368q.507 0 .771-.389q.14-.204.21-.538h.446q-.06.534-.396.895q-.402.434-1.086.434q-.588 0-.989-.356q-.526-.472-.527-1.456q0-.748.396-1.226q.428-.52 1.18-.52m2.28 2.38a.9.9 0 0 0 .135.467q.228.336.803.336q.257 0 .47-.073q.409-.143.409-.511q0-.276-.173-.393q-.175-.116-.547-.2l-.458-.104q-.448-.101-.635-.223q-.322-.211-.322-.633q0-.455.315-.747t.893-.292q.531 0 .902.257q.372.255.372.82h-.43a.85.85 0 0 0-.147-.417q-.21-.265-.71-.265q-.406 0-.583.17a.53.53 0 0 0-.177.396q0 .249.207.364q.135.073.614.184l.474.108q.343.078.53.214q.321.237.321.687q0 .562-.41.803a1.8 1.8 0 0 1-.947.242q-.63 0-.987-.322q-.356-.32-.35-.867h.43Zm3.137 0a.9.9 0 0 0 .136.467q.228.336.803.336q.257 0 .469-.073q.41-.143.41-.511q0-.276-.173-.393q-.176-.116-.548-.2l-.457-.104q-.45-.101-.635-.223q-.322-.211-.322-.633q0-.455.315-.747q.316-.292.892-.292q.532 0 .902.257q.373.255.373.82h-.43a.85.85 0 0 0-.148-.417q-.21-.265-.71-.265q-.405 0-.582.17a.53.53 0 0 0-.177.396q0 .249.207.364q.135.073.614.184l.474.108q.342.078.529.214q.322.237.322.687q0 .562-.41.803a1.8 1.8 0 0 1-.947.242q-.63 0-.987-.322q-.357-.32-.35-.867h.43Zm-6.197 3.6l.97 2.857l.965-2.857h.648v3.38h-.434v-1.995q0-.104.004-.343q.005-.24.005-.513l-.964 2.85h-.453l-.97-2.85v.104q-.001.125.004.38q.006.252.007.372v1.994h-.437v-3.379zm4.743-.091q.895 0 1.325.575q.336.448.336 1.147q0 .757-.384 1.259q-.451.588-1.286.589q-.78 0-1.226-.516q-.398-.496-.398-1.256q0-.685.34-1.173q.438-.625 1.293-.625m.046 3.16q.605 0 .874-.432q.272-.435.272-.999q0-.596-.313-.959q-.31-.363-.851-.363q-.525 0-.856.36t-.331 1.061q0 .562.283.948q.285.384.922.384m3.455-.08q.233 0 .382-.049a.84.84 0 0 0 .437-.345a1.4 1.4 0 0 0 .196-.524a2 2 0 0 0 .034-.355q0-.627-.25-.975q-.25-.347-.803-.347H9.35v2.595zm-1.276-2.99h1.368q.697 0 1.081.495q.343.446.343 1.143q0 .539-.202.973q-.357.768-1.226.769H8.89zm3.88 0v2.089q0 .368.138.612q.205.368.69.368q.582 0 .791-.398q.114-.216.113-.582v-2.089h.465v1.898q0 .622-.168.96q-.309.61-1.164.61c-.855 0-.958-.203-1.162-.61q-.168-.338-.168-.96v-1.898zm3.357 0v2.977h1.711v.402h-2.17v-3.379zm2.208 0h2.463v.414h-2.017v1.026h1.865v.391h-1.865v1.146h2.052v.402h-2.498zm3.402 2.29q.016.286.135.466q.228.336.803.336q.258 0 .47-.074q.408-.143.409-.51q0-.276-.173-.394q-.174-.114-.547-.2l-.458-.103q-.448-.102-.635-.223q-.322-.211-.322-.633q0-.456.315-.748q.315-.291.893-.292q.531 0 .901.258q.373.255.373.819h-.43a.85.85 0 0 0-.147-.416q-.21-.265-.711-.265q-.405 0-.582.17a.53.53 0 0 0-.177.396q0 .248.207.363q.135.074.614.184l.474.108q.343.08.529.214q.322.238.322.688q0 .561-.41.803a1.8 1.8 0 0 1-.947.241q-.63 0-.987-.322q-.356-.32-.35-.867h.43Z"/></svg>