<svg xmlns="http://www.w3.org/2000/svg" width="128" height="128" viewBox="0 0 24 24"><path fill="#8877ff" d="M15.496 8.608a2.175 2.385 0 0 0-2.175 2.384a2.175 2.385 0 0 0 2.175 2.385a2.175 2.385 0 0 0 2.175-2.385a2.175 2.385 0 0 0-2.175-2.384m0 .15a.934.934 0 0 1 .933.935a.934.934 0 0 1-.933.934a.934.934 0 0 1-.934-.934a.934.934 0 0 1 .934-.934zm4.903 9.433a.3.3 0 0 0-.094.014c-.278.08-.642.735-.563 1.013s.356.152.524.245c.149.083.196.33.4.329c-.033.446.125.903.398 1.231c.464.564 1.173.576 1.627.68c.453.103.789.38.955.683h-.01c.14.253.413-.965.313-1.81c-.199-1.692-1.827-2.294-2.657-1.856c-.095-.218-.349-.112-.507-.2c-.147-.082-.195-.323-.39-.329zM2.01 8.207a2.938 2.279 78.561 0 0-.296.036a2.938 2.279 78.561 0 0-1.637 3.343a2.938 2.279 78.561 0 0 2.824 2.412a2.938 2.279 78.561 0 0 1.637-3.343A2.938 2.279 78.561 0 0 2.01 8.207m.02.182a1.24 1.24 89.982 0 1 1.24 1.24a1.24 1.24 89.982 0 1-1.24 1.241A1.24 1.24 89.982 0 1 .79 9.63a1.24 1.24 89.982 0 1 1.24-1.24zm7.296.619a1.61 1.957 0 0 0-1.61 1.957a1.61 1.957 0 0 0 1.61 1.957a1.61 1.957 0 0 0 1.61-1.957a1.61 1.957 0 0 0-1.61-1.957m.01.142a.734.734 0 0 1 .733.733a.734.734 0 0 1-.733.734a.734.734 0 0 1-.734-.734a.734.734 0 0 1 .734-.733m13.785-7.57c-.082.01-.178.056-.278.184c-2.255 3.385-5.54 4.902-7.936 5.521a3.513 3.586 0 0 1 3.25 3.576a3.513 3.586 0 0 1-3.513 3.586a3.513 3.586 0 0 1-3.375-2.595a2.676 2.998 0 0 1-2.52 2a2.676 2.998 0 0 1-2.676-2.998a2.676 2.998 0 0 1 2.675-2.999a2.676 2.998 0 0 1 2.517 2.037a3.513 3.586 0 0 1 1.878-2.27c-1.887.246-2.89-.025-4.335-.649c-1.024-.56-1.722-1.173-2.48-2.359c-.036-.055-.11-.086-.16-.025c-.18.241-.97 5.723-.98 6.227c-.033 1.632-.706 3.593-2.73 3.661c1.864 3.799 5.919 5.465 10.586 5.397c1.404.01 3.329-.332 5.171-1.243a214 214 0 0 1-1.568-.996c-1.347.788-2.935 1.09-4.674 1.019c-2.217-.09-1.847-.732-1.36-.667c3.574.506 5.82-.624 7.315-2.547a35 35 0 0 1-.556-.377c-.164-.114.032-.291.385-.304h.04c.205-.002.458.056.722.206c.757.433.783.965.535 1.081c-.08.037-.263-.048-.439-.151c-.255.329-.53.622-.818.887h.01c.668.29 1.568.684 2.005.89a9.6 9.6 0 0 0 3.017-3.574c2.18-4.449.652-12.176.614-12.29c-.039-.112-.15-.211-.242-.226h-.076z"/></svg>