<svg xmlns="http://www.w3.org/2000/svg" width="128" height="128" viewBox="0 0 32 32"><path fill="#e64a19" d="M13.172 2.828L11.78 4.22l1.91 1.91l2 2A2.986 2.986 0 0 1 20 10.81a3.25 3.25 0 0 1-.31 1.31l2.06 2a2.68 2.68 0 0 1 3.37.57a2.86 2.86 0 0 1 .88 2.117a3.02 3.02 0 0 1-.856 2.109A2.9 2.9 0 0 1 23 19.81a2.93 2.93 0 0 1-2.13-.87a2.694 2.694 0 0 1-.56-3.38l-2-2.06a3 3 0 0 1-.31.12V20a3 3 0 0 1 1.44 1.09a2.92 2.92 0 0 1 .56 1.72a2.88 2.88 0 0 1-.878 2.128a2.98 2.98 0 0 1-2.048.871a2.981 2.981 0 0 1-2.514-4.719A3 3 0 0 1 16 20v-6.38a2.96 2.96 0 0 1-1.44-1.09a2.9 2.9 0 0 1-.56-1.72a2.9 2.9 0 0 1 .31-1.31l-3.9-3.9l-7.579 7.572a4 4 0 0 0-.001 5.658l10.342 10.342a4 4 0 0 0 5.656 0l10.344-10.344a4 4 0 0 0 0-5.656L18.828 2.828a4 4 0 0 0-5.656 0"/></svg>