<svg xmlns="http://www.w3.org/2000/svg" width="128" height="128" viewBox="0 0 128 128"><path fill="#179287" d="M123.92 33.219a2.532 2.532 0 0 0-4.923.914a1.76 1.76 0 0 0 .141.844a58.1 58.1 0 0 1 3.727 20.747a58.935 58.935 0 0 1-51.128 58.372V86.598a42 42 0 0 0 5.134-1.336v23.067A54.153 54.153 0 0 0 90.233 8.322a2.6 2.6 0 0 0-3.587 1.126a3.2 3.2 0 0 0-.21 1.125a2.53 2.53 0 0 0 1.265 2.25a49.019 49.019 0 0 1-5.696 88.544V80.9a7.88 7.88 0 0 0 5.485-7.454a7.74 7.74 0 0 0-3.868-6.822c1.829-17.653 9.917-13.011 9.917-18.637v-3.235c0-8.51-19.552-35.938-28.694-36.642h-1.688c-9.143.704-28.694 28.132-28.694 36.642v3.235c0 5.626 8.088.984 9.916 18.637A7.877 7.877 0 0 0 46.067 80.9v20.466A49.019 49.019 0 0 1 40.3 12.823a2.53 2.53 0 0 0 1.055-3.375a2.46 2.46 0 0 0-2.32-1.407a2.3 2.3 0 0 0-1.196.281A54.153 54.153 0 0 0 51.2 108.33V85.262a42 42 0 0 0 5.134 1.336v27.498a58.935 58.935 0 0 1-51.2-58.372a59.6 59.6 0 0 1 3.728-20.747a2.53 2.53 0 0 0-1.336-3.235a2.8 2.8 0 0 0-1.055-.211a2.6 2.6 0 0 0-2.391 1.688a64 64 0 0 0 57.317 86.433v-32.35h5.205v32.35a63.93 63.93 0 0 0 61.396-63.928a62.7 62.7 0 0 0-4.079-22.505zm-48.104 36.5a5.275 5.275 0 1 1 7.455 7.455a5.275 5.275 0 1 1-7.455-7.455m-23.63 7.455a5.204 5.204 0 0 1-7.385 0a5.275 5.275 0 0 1 0-7.455a5.204 5.204 0 0 1 7.384 0a5.275 5.275 0 0 1 0 7.455z"/></svg>