<svg xmlns="http://www.w3.org/2000/svg" width="128" height="128" viewBox="0 0 32 32"><path fill="#e53935" d="m29.532 13.083l-.037-.105l-3.811-10.322a1 1 0 0 0-.392-.49a.985.985 0 0 0-1.39.316a1 1 0 0 0-.122.28L21.208 10H10.792L8.22 2.762a1.004 1.004 0 0 0-1.246-.721a1 1 0 0 0-.266.124a1 1 0 0 0-.392.491L2.507 12.98l-.04.103a7.52 7.52 0 0 0 2.348 8.491l.015.012l.032.026l5.797 4.511l2.876 2.257l1.747 1.372a1.146 1.146 0 0 0 1.424 0l1.747-1.372l2.876-2.257l5.838-4.537l.016-.013a7.52 7.52 0 0 0 2.35-8.49Z"/><path fill="#ef6c00" d="m29.532 13.083l-.037-.105a12.6 12.6 0 0 0-5.123 2.394l-8.367 6.57l5.327 4.181l5.839-4.537l.016-.013a7.52 7.52 0 0 0 2.345-8.49"/><path fill="#f9a825" d="m10.659 26.123l2.876 2.257l1.747 1.372a1.146 1.146 0 0 0 1.424 0l1.747-1.372l2.876-2.257L16 21.943Z"/><path fill="#ef6c00" d="M7.628 15.371a12.6 12.6 0 0 0-5.12-2.39l-.04.102a7.52 7.52 0 0 0 2.347 8.491l.015.012l.032.026l5.797 4.511l5.331-4.18Z"/></svg>