<svg xmlns="http://www.w3.org/2000/svg" width="128" height="128" viewBox="0 0 128 128"><path fill="#02228e" d="M101.076 40.521v35.801h7.805V67.31l8.586 9.011h10.539v-.422l-11.32-11.48l10.68-9.848v-.375h-10.294l-8.191 7.98V40.522zM85.453 53.38q-2.896 0-5.328.902c-1.625.602-3.023 1.434-4.207 2.477a11.4 11.4 0 0 0-2.766 3.71q-.989 2.142-.988 4.598q-.001 2.721.988 4.938a11.4 11.4 0 0 0 2.746 3.816c1.165 1.063 2.547 1.887 4.16 2.461q2.42.863 5.266.864q2.887-.001 5.375-.864q2.48-.86 4.246-2.441a11.4 11.4 0 0 0 2.785-3.754c.676-1.453 1.016-3.05 1.016-4.813c0-1.75-.332-3.359-.988-4.808a11.3 11.3 0 0 0-2.793-3.75q-1.789-1.57-4.227-2.453q-2.437-.884-5.285-.883m-48.336.207q-2.42 0-4.465.93a10.9 10.9 0 0 0-3.539 2.543c-.992 1.082-1.773 2.34-2.347 3.8q-.866 2.175-.864 4.723c0 1.668.266 3.184.797 4.559c.535 1.363 1.278 2.535 2.238 3.511a10.4 10.4 0 0 0 3.434 2.29q1.987.82 4.356.82c.714 0 1.378-.051 1.98-.153a8 8 0 0 0 1.727-.496a10 10 0 0 0 1.62-.883a13.5 13.5 0 0 0 1.657-1.359v5.8h-.004v.563h-7.309l-5.492 6.184v1.062H51.52V54.195h-7.81v2.328c-1.776-1.953-3.98-2.937-6.593-2.937zm-25.629.582l-3.68 4.195v-4.11H0v22.134h7.809V61.453h7.332l.609-.012v14.942h7.809V62.539q0-1.77-.34-3.152a6.1 6.1 0 0 0-1.293-2.504a8.4 8.4 0 0 0-1.383-1.285a8.4 8.4 0 0 0-1.441-.848a7 7 0 0 0-.782-.293a9 9 0 0 0-1.265-.289zm43.278.027v22.133h7.828l.008-14.812h5.68l6.202-7.012v-.309H65.97l-3.387 3.813v-3.813zm-15.711 5.953c.664 0 1.3.13 1.922.391a4.9 4.9 0 0 1 1.617 1.074c.465.465.824.992 1.105 1.594q.41.904.41 1.988a4.9 4.9 0 0 1-.418 1.961a5.7 5.7 0 0 1-1.074 1.617c-.449.461-.98.817-1.594 1.079a5 5 0 0 1-1.96.386a5.1 5.1 0 0 1-2.008-.386a4.8 4.8 0 0 1-1.598-1.079a5.2 5.2 0 0 1-1.059-1.617a5.1 5.1 0 0 1-.386-2.008q-.002-1.038.406-1.941a5 5 0 0 1 1.105-1.574a5.6 5.6 0 0 1 1.594-1.074a4.6 4.6 0 0 1 1.938-.41zm46.402 0a4.95 4.95 0 0 1 1.961.391a4.6 4.6 0 0 1 1.594 1.074c.449.465.8 1.004 1.078 1.621q.408.923.406 1.961a4.9 4.9 0 0 1-.406 2a5.7 5.7 0 0 1-1.078 1.618a4.8 4.8 0 0 1-1.594 1.078c-.621.261-1.27.39-1.961.39a5 5 0 0 1-1.965-.39a4.7 4.7 0 0 1-1.594-1.079c-.449-.46-.804-1-1.078-1.617q-.408-.924-.406-2.047q-.002-1.038.406-1.941a5.6 5.6 0 0 1 1.078-1.594c.45-.46.977-.82 1.594-1.074a5 5 0 0 1 1.965-.39z"/></svg>