<svg xmlns="http://www.w3.org/2000/svg" width="128" height="128" viewBox="0 0 24 24"><path fill="#8877ff" d="M12 20q-1.597 0-2.77-.696a4.7 4.7 0 0 1-1.794-1.89a10 10 0 0 1-.916-2.53A13.6 13.6 0 0 1 6.23 12q0-1.149.152-2.2q.15-1.049.556-2.132A6.8 6.8 0 0 1 7.98 5.79a4.7 4.7 0 0 1 1.668-1.293Q10.681 4 12 4q1.597 0 2.77.696a4.7 4.7 0 0 1 1.794 1.89q.627 1.193.916 2.53T17.77 12q0 1.149-.152 2.2a9.8 9.8 0 0 1-.567 2.132a7.2 7.2 0 0 1-1.042 1.878q-.627.796-1.657 1.293q-1.031.498-2.352.497m2.037-5.882c.551-.554.858-1.32.848-2.118q0-1.236-.827-2.118Q13.23 9 12 9t-2.058.882A3 3 0 0 0 9.115 12q0 1.236.827 2.118Q10.77 15 12 15t2.037-.882M12 24c6.372 0 11.538-5.373 11.538-12S18.372 0 12 0S.462 5.373.462 12S5.628 24 12 24"/></svg>