<svg xmlns="http://www.w3.org/2000/svg" width="128" height="128" viewBox="0 0 24 24"><path fill="#8bc34a" d="M10.86 4.29h-.36a9 9 0 0 0-1.11.12h-.03l-.24.05l-.09.02l-.15.03h-.03a9 9 0 0 0-2.12.8l-.13.07l-.16.09l-.11.06h-.01l-.03.03l.09.15l2.63 4.36l.15-.09a4 4 0 0 1 .16-.08a3.6 3.6 0 0 1 1.18-.33a4 4 0 0 1 .36-.02V4.3zM5.98 5.75L5.61 6a9 9 0 0 0-.76.63l3.74 3.74l.12-.1l-.01-.02zm8.47 7.4l-.01.17l-.01.18a3.57 3.57 0 0 1-.8 1.92l-.11.13c-.04.04-.08.1-.13.13l3.73 3.73l.24-.26a9 9 0 0 0 .76-.94l.03-.03l.15-.23l.03-.06a8.83 8.83 0 0 0 1.37-4.39v-.18l.01-.18h-5.26zM2 13.5v.08l.01.15l.02.23V14l.02.19v.02l.03.2c.06.42.15.84.27 1.25l.07.2v.01l.06.19l.02.04l.05.15l.03.07l.04.12l.04.1l.04.09l.05.12l.04.07l.06.14l.1.2l.01.03l.1.17l.02.04l4.5-2.71l.03-.01a3.6 3.6 0 0 1-.33-1.18zM7.78 15l-4.51 2.7l.21.34l.01.01l.01.02l.02.03l.24.34h.01v.01l.11.15l.02.02l.12.14l.02.03l.11.13l.05.06l.1.1l.05.06l.02.02l.07.08l.03.03l.12.13l3.73-3.73a4 4 0 0 1-.13-.13l-.11-.13l-.1-.13l-.1-.14l-.1-.15zm4.93 1.22l-.16.08a3.6 3.6 0 0 1-1.7.43a3.6 3.6 0 0 1-1.03-.15l-.16-.05a3 3 0 0 1-.17-.07L7.62 21l-.07.18l-.07.15h.02l.01.01l.14.05l.17.07c.03 0 .05.02.08.03a9 9 0 0 0 1.8.43l.16.02l.14.02h.04a9 9 0 0 0 .38.03h.44a9 9 0 0 0 1.47-.11h.02l.15-.04l.1-.01l.23-.05a9 9 0 0 0 2.15-.8l.14-.08l.15-.08l.1-.06h.01l.01-.01l.04-.02l-.1-.15l-.09-.16z"/><path fill="#689f38" d="M11.21 4.3v5.27a3.7 3.7 0 0 1 .8.17l3.89-3.88a9 9 0 0 0-.44-.29h-.02l-.14-.1l-.09-.04l-.08-.05l-.14-.07l-.02-.02a9 9 0 0 0-.95-.42l-.03-.01l-.21-.08A9 9 0 0 0 12 4.36l-.08-.01h-.07l-.14-.02h-.05l-.17-.02h-.06l-.15-.01zM4.6 6.87L4.47 7l-.12.13a9 9 0 0 0-.75.93l-.04.05a6 6 0 0 0-.15.23l-.03.04a8.83 8.83 0 0 0-1.37 4.4v.17l-.01.18h5.26l.01-.18l.01-.17a3.57 3.57 0 0 1 .8-1.92c.03-.05.08-.09.12-.13c.04-.05.07-.1.12-.14L4.6 6.88zM18.14 8.1l-3.89 3.89c.1.26.15.52.18.8h5.28v-.08l-.02-.14v-.07l-.01-.17v-.04l-.03-.2v-.01l-.03-.21a9 9 0 0 0-.27-1.24v-.01l-.06-.2l-.07-.19l-.01-.04a6 6 0 0 0-.08-.22l-.05-.12l-.08-.2l-.05-.11l-.1-.21l-.02-.04l-.08-.17V9.1l-.1-.17v-.01a9 9 0 0 0-.5-.82zm-5.01 7.82l-.13.1l.01.01l2.72 4.5l.37-.25a9 9 0 0 0 .76-.63l-3.72-3.71zm-4.55 0l-.01.02l-3.72 3.71l.16.16c.02 0 .04.02.06.04l.13.1l.03.03l.15.12l.01.02l.16.12a9 9 0 0 0 .7.47l.03.02a9 9 0 0 0 .45.25l.02.01a8 8 0 0 0 .4.2l.14-.32l1.87-4.54v-.02a3.6 3.6 0 0 1-.58-.39"/><path fill="#e0e0e0" d="M19.53 2a2.46 2.46 0 0 0-1.74.72a2.47 2.47 0 0 0-.47 2.84l-5.37 5.37a2.47 2.47 0 1 0 1.12 1.12l5.37-5.37a2.47 2.47 0 0 0 2.84-3.96A2.46 2.46 0 0 0 19.53 2"/></svg>