<svg xmlns="http://www.w3.org/2000/svg" width="128" height="128" viewBox="0 0 128 128"><path fill="#3c6eb4" d="M93.188 59.803c.148.927.3 1.854.482 2.76h8.955v-2.76zm1.484 6.896c.185.634.381 1.265.598 1.893q.781.388 1.517.87h11.352v-2.763zm-18.431 1.282c-.426.155-.843.336-1.252.533v.004c.41-.198.825-.382 1.252-.537m-41.248 34.57v2.76H68.15v-2.76zm19.31 6.896v2.752H81.6v-2.752z"/><path fill="#ccc" d="M61.114 16.26c-4.91 0-9.721.567-12.586 1.707c-7.89 2.888-13.95 10.775-15.746 20.33c-2.365 11.186-2.224 19.941-4.572 28.178a13.6 13.6 0 0 1 3.529-1.94c1.834-.726 4.909-1.09 8.049-1.09s6.35.365 8.431 1.09c4.571 1.67 8.177 5.96 9.67 11.284h9.719c1.991-3.681 5.03-6.523 8.633-7.838c3.919-1.554 13.165-1.55 17.617 0c.483.176.952.39 1.414.619c-3.062-8.866-2.673-18.151-5.242-30.303c-1.795-9.555-7.857-17.442-15.746-20.33c-3.254-1.136-8.261-1.706-13.17-1.707"/><path fill="#e7e8e9" d="M45.275 49.787a3.344 3.523 0 0 0-3.34 3.523a3.344 3.523 0 0 0 3.34 3.523a3.344 3.523 0 0 0 3.341-3.523a3.344 3.523 0 0 0-3.34-3.523zm33.79 0a3.344 3.523 0 0 0-3.34 3.523a3.344 3.523 0 0 0 3.34 3.523a3.344 3.523 0 0 0 3.35-3.523a3.344 3.523 0 0 0-3.35-3.523"/><path fill="#a7a9ac" d="m50.905 50.705l-12.428 3.332l.356 1.332l12.43-3.332zm23.52 0l-.358 1.332l12.427 3.332l.358-1.332zm-22.276 2.008L39.65 59.932l.69 1.193l12.497-7.218zm21.039 0l-.69 1.194l12.498 7.218l.69-1.193zm-20.125 2.395l-8.607 8.619q.878.113 1.677.271l7.905-7.916zm19.21 0l-.974.974l10.809 10.826q.92-.06 1.87-.08zm-18.792 3.138l-3.957 6.86q.617.304 1.205.672l3.947-6.844zm18.375 0l-1.195.688l5.287 9.168c.098-.039.193-.085.293-.121c.31-.123.665-.233 1.037-.336z"/><path fill="#fff" d="M73.261 50.84a10.736 10.217 0 0 1-10.736 10.218A10.736 10.217 0 0 1 51.788 50.84a10.736 10.217 0 0 1 10.737-10.217A10.736 10.217 0 0 1 73.26 50.84Z"/><path fill="gray" d="M67.107 48.998c-.36-.933-.36-2.799-1.44-2.799s-2.08-.7-3.142-.7c-1.063 0-2.06.7-3.142.7c-1.08 0-1.08 1.866-1.44 2.8c-.36.932 4.582 3.964 4.582 3.964s4.942-3.032 4.582-3.965"/><path fill="#3c6eb4" d="M57.399 74.29c.33.886.59 1.81.793 2.761h8.799c.443-.973.958-1.897 1.535-2.762zm44.177.001a20 20 0 0 1 1.532 2.76h11.072v-2.76z"/><path fill="#ccc" d="M39.789 63.445c-3.14 0-6.216.364-8.05 1.09c-5.046 1.844-8.917 6.878-10.065 12.975c-.6 2.826-.945 5.391-1.238 7.807h39.086c-.293-2.416-.63-4.98-1.23-7.807c-1.147-6.097-5.027-11.13-10.074-12.974c-2.082-.725-5.29-1.09-8.43-1.09Z"/><path fill="#e7e8e9" d="M29.663 84.84a2.14 2.248 0 0 0-1.255.477h2.56a2.14 2.248 0 0 0-1.305-.476zm21.62 0a2.14 2.248 0 0 0-1.256.477h2.562a2.14 2.248 0 0 0-1.307-.476z"/><path fill="#a7a9ac" d="m33.202 85.187l-.484.13h.52zm15.172 0l-.035.13h.52z"/><path fill="#fff" d="M40.698 79a6.868 6.52 0 0 0-6.846 6.317h13.682A6.868 6.52 0 0 0 40.698 79"/><path fill="gray" d="M40.698 82.106c-.68 0-1.317.45-2.008.45s-.696 1.188-.926 1.783c-.08.208.268.583.735.978h4.396c.468-.395.808-.77.727-.978c-.23-.595-.226-1.783-.917-1.783c-.69 0-1.327-.45-2.007-.45"/><path fill="#892ca0" d="m91.736 1.467l-55.738.164a1.38 1.38 0 0 0-1.073.52L.295 45.883a1.38 1.38 0 0 0-.26 1.16l12.56 54.363a1.38 1.38 0 0 0 .753.935l50.285 24.061a1.38 1.38 0 0 0 1.195-.01l50.148-24.355a1.38 1.38 0 0 0 .744-.943l12.247-54.432a1.38 1.38 0 0 0-.268-1.16L92.82 1.977a1.38 1.38 0 0 0-1.083-.51Zm-.657 2.76l34.05 42.48l-11.954 53.142l-48.945 23.776l-49.091-23.482L2.875 47.07L36.673 4.383Z"/><path fill="#ccc" d="M106.644 95.737c-.606-4.124-.9-8.61-2.019-13.887c-1.228-6.518-5.373-11.9-10.768-13.87c-4.452-1.55-13.697-1.554-17.616 0c-5.395 1.97-9.54 7.352-10.768 13.87c-1.118 5.278-1.413 9.763-2.019 13.887"/><path fill="#e7e8e9" d="M74.02 89.688a2.287 2.404 0 0 0-2.286 2.406A2.287 2.404 0 0 0 74.02 94.5a2.287 2.404 0 0 0 2.285-2.406a2.287 2.404 0 0 0-2.285-2.406m23.11 0a2.287 2.404 0 0 0-2.286 2.406A2.287 2.404 0 0 0 97.13 94.5a2.287 2.404 0 0 0 2.285-2.406a2.287 2.404 0 0 0-2.285-2.406"/><path fill="#a7a9ac" d="m77.814 90.104l-8.5 2.277l.358 1.332l8.498-2.277zm16.196 0l-.358 1.332l8.5 2.277l.358-1.332zm-15.4 1.392l-8.544 4.926l.688 1.193l8.543-4.924zm14.605 0l-.69 1.195l8.543 4.924l.69-1.193z"/><path fill="#fff" d="M93.157 90.41a7.343 6.97 0 0 1-7.342 6.97a7.343 6.97 0 0 1-7.343-6.97a7.343 6.97 0 0 1 7.343-6.97a7.343 6.97 0 0 1 7.342 6.97"/><path fill="gray" d="M88.948 89.152c-.246-.636-.246-1.91-.985-1.91c-.738 0-1.42-.476-2.148-.476c-.727 0-1.41.477-2.149.477c-.738 0-.738 1.273-.985 1.91c-.246.636 3.134 2.704 3.134 2.704s3.38-2.068 3.133-2.705"/><path fill="#60605b" d="M62.526 39.592c-6.461 0-11.77 5.022-11.77 11.252s5.309 11.252 11.77 11.252c6.462 0 11.771-5.022 11.771-11.252s-5.311-11.252-11.771-11.252m0 2.069c5.398 0 9.703 4.128 9.703 9.183c0 5.056-4.305 9.182-9.703 9.182s-9.703-4.126-9.703-9.182c0-5.055 4.306-9.183 9.703-9.183m-21.828 36.3c-4.254 0-7.78 3.26-7.895 7.356h2.069c.112-2.92 2.637-5.288 5.826-5.288c3.19 0 5.712 2.368 5.824 5.288h2.068c-.113-4.095-3.64-7.356-7.892-7.356m45.119 4.447c-4.585 0-8.38 3.56-8.38 7.998c0 4.44 3.795 8.006 8.38 8.006s8.379-3.567 8.379-8.006c0-4.438-3.793-7.998-8.38-7.998zm0 2.069c3.525 0 6.31 2.667 6.31 5.93c0 3.26-2.785 5.937-6.31 5.937s-6.31-2.677-6.31-5.938s2.786-5.93 6.31-5.93z"/><path fill="#3c6eb4" d="M15.962 85.317v2.76h48.462q.178-1.345.406-2.76zM40.516 95.66v2.752h71.664V95.66h-5.545l.01.076H63.453l.01-.076z"/><path d="M61.116 15.227h-.002c-4.982 0-9.83.544-12.955 1.783c-8.283 3.043-14.528 11.225-16.385 21.076c-1.652 7.815-2.09 14.424-2.969 20.408c-.375 2.558-.838 4.995-1.496 7.377c-3.361 2.655-5.775 6.766-6.658 11.45c-.616 2.913-.957 5.54-1.254 7.996h2.078c.288-2.37.624-4.86 1.203-7.59l.008-.01v-.018c1.09-5.783 4.77-10.492 9.408-12.185l.018-.01l.008-.008c1.573-.624 4.607-1.014 7.668-1.014c3.057 0 6.211.381 8.084 1.031c4.634 1.696 8.311 6.406 9.4 12.186v.018l.008.01c.58 2.73.915 5.221 1.203 7.59h2.079c-.297-2.458-.637-5.09-1.254-8.006c-1.21-6.406-5.282-11.754-10.735-13.745h-.008l-.008-.01c-2.292-.796-5.55-1.14-8.77-1.142c-3.214 0-6.328.333-8.419 1.16c-.518.19-1.02.42-1.512.668a70 70 0 0 0 1-5.445c.895-6.102 1.315-12.633 2.934-20.287l.01-.01v-.016c1.736-9.24 7.606-16.806 15.086-19.544l.01-.008h.015c2.605-1.036 7.375-1.636 12.205-1.635c4.823 0 9.764.583 12.81 1.643c7.48 2.737 13.35 10.303 15.084 19.543l.01.02v.007c1.618 7.654 2.048 14.185 2.943 20.287c.403 2.748.926 5.41 1.68 8.035c-2.394-.724-5.604-1.05-8.795-1.05c-3.43 0-6.747.36-8.966 1.238c-5.794 2.12-10.125 7.8-11.416 14.619c-1.136 5.358-1.438 9.879-2.036 13.943l2.051.303c.615-4.183.898-8.626 2-13.823l.01-.01v-.007c1.168-6.205 5.123-11.276 10.11-13.096h.007l.018-.01c1.7-.674 4.946-1.09 8.223-1.09c3.275 0 6.648.407 8.664 1.108h.01c4.977 1.826 8.922 6.89 10.09 13.088v.017c1.101 5.196 1.392 9.64 2.007 13.822l2.053-.302c-.597-4.065-.9-8.586-2.035-13.944c-1.146-6.057-4.692-11.213-9.53-13.777c-1.004-3.013-1.62-6.093-2.101-9.367c-.877-5.98-1.312-12.584-2.961-20.39c-1.854-9.868-8.103-18.074-16.402-21.112h-.018c-3.464-1.21-8.52-1.764-13.51-1.765M45.546 27.69a6.91 6.91 0 0 0-5.506 2.684l-.633.814l1.646 1.264l.631-.823a4.92 4.92 0 0 1 3.592-1.869c1.3-.055 2.65.468 3.574 1.385l.736.736l1.463-1.472l-.736-.727a6.9 6.9 0 0 0-4.77-1.99zm33.372 0a6.9 6.9 0 0 0-4.77 1.992l-.736.727l1.455 1.472l.737-.736a4.9 4.9 0 0 1 3.574-1.385c1.375.06 2.76.777 3.6 1.87l.633.822l1.636-1.264l-.633-.814a6.9 6.9 0 0 0-5.496-2.684m-33.425 9.115a5.17 5.306 0 0 0-5.168 5.305a5.17 5.306 0 0 0 5.168 5.306a5.17 5.306 0 0 0 5.175-5.306a5.17 5.306 0 0 0-5.175-5.305m33.468 0a5.17 5.306 0 0 0-5.167 5.305a5.17 5.306 0 0 0 5.167 5.306a5.17 5.306 0 0 0 5.168-5.306a5.17 5.306 0 0 0-5.167-5.305zm-16.435 7.66c-.758 0-1.379.233-1.895.407c-.517.175-.93.294-1.248.294c-.567 0-1.124.311-1.427.676c-.302.364-.445.74-.555 1.098c-.22.713-.327 1.438-.424 1.69c-.222.574-.01 1.031.166 1.331c.175.3.389.536.63.78c.484.486 1.096.973 1.714 1.427c.633.464 1.268.886 1.74 1.194l-.025.416c-.233.19-.8.693-1.74 1.011c-.556.188-1.116.255-1.602.131c-.413-.106-.824-.47-1.246-1.021c.027-.218.037-.307.086-.666c.087-.628.213-1.387.27-1.612l-2.009-.502c-.12.48-.222 1.18-.312 1.829c-.09.648-.156 1.203-.156 1.203l-.043.37l.199.311c.729 1.146 1.701 1.841 2.701 2.096s1.97.101 2.78-.172c1.05-.357 1.906-.93 2.378-1.29c.473.36 1.324.935 2.371 1.29c.81.274 1.77.428 2.77.172s1.973-.95 2.701-2.096l.2-.31l-.044-.371s-.066-.555-.156-1.203c-.09-.65-.194-1.349-.312-1.829l-2.008.502c.056.225.182.984.27 1.612c.048.354.06.44.085.658c-.424.556-.83.923-1.246 1.03c-.486.123-1.045.056-1.601-.132c-.94-.318-1.508-.821-1.74-1.011l-.018-.389c.479-.31 1.128-.74 1.783-1.22c.618-.455 1.23-.943 1.715-1.43c.24-.243.456-.479.63-.778c.177-.3.387-.757.165-1.332c-.097-.25-.212-.976-.432-1.69c-.11-.356-.242-.734-.545-1.099c-.303-.364-.86-.674-1.428-.674c-.317 0-.73-.12-1.246-.294c-.517-.174-1.137-.407-1.896-.407m0 2.069c.305 0 .71.118 1.23.293c.478.162 1.079.34 1.764.373c.023.035.085.15.148.355c.111.36.224.91.38 1.445c-.05.068-.11.153-.241.285c-.342.344-.9.791-1.473 1.211c-.88.647-1.43.984-1.808 1.221c-.375-.236-.936-.57-1.819-1.22c-.573-.42-1.12-.868-1.462-1.212c-.132-.132-.19-.217-.24-.285c.154-.535.268-1.084.378-1.445a1.6 1.6 0 0 1 .149-.355c.684-.032 1.277-.211 1.756-.373c.518-.175.934-.293 1.238-.293M29.584 70.369c-1.4.06-2.71.744-3.566 1.854l-.63.822l1.634 1.264l.633-.824a2.8 2.8 0 0 1 2.025-1.047a2.78 2.78 0 0 1 2.008.779l.736.727l1.453-1.471l-.736-.727a4.8 4.8 0 0 0-3.557-1.377m21.838 0a4.77 4.77 0 0 0-3.55 1.377l-.735.727l1.453 1.47l.737-.726a2.78 2.78 0 0 1 2.007-.78a2.8 2.8 0 0 1 2.026 1.048l.623.824l1.644-1.264l-.632-.822a4.79 4.79 0 0 0-3.573-1.854m45.604 3.912h-.002a5.05 5.05 0 0 0-3.487 1.456l-.736.726l1.455 1.47l.734-.726a3.03 3.03 0 0 1 2.2-.847c.84.035 1.701.477 2.214 1.142l.633.822l1.637-1.263l-.633-.822a5.02 5.02 0 0 0-3.758-1.95q-.127-.006-.257-.008m-22.824 0q-.13 0-.26.009a5.04 5.04 0 0 0-3.766 1.949l-.63.822l1.644 1.264l.63-.823a3.04 3.04 0 0 1 2.208-1.142a3.05 3.05 0 0 1 2.207.847l.736.727l1.455-1.47l-.736-.727a5.05 5.05 0 0 0-3.488-1.455zM29.8 76.559a3.307 3.386 0 0 0-3.306 3.384a3.307 3.386 0 0 0 3.306 3.393a3.307 3.386 0 0 0 3.306-3.393a3.307 3.386 0 0 0-3.306-3.384m21.412 0a3.307 3.386 0 0 0-3.315 3.384a3.307 3.386 0 0 0 3.315 3.393a3.307 3.386 0 0 0 3.306-3.393a3.307 3.386 0 0 0-3.306-3.384m22.953 4.276a3.536 3.62 0 0 0-3.53 3.617a3.536 3.62 0 0 0 3.53 3.618a3.536 3.62 0 0 0 3.54-3.618a3.536 3.62 0 0 0-3.54-3.617m22.893 0a3.536 3.62 0 0 0-3.54 3.617a3.536 3.62 0 0 0 3.54 3.618a3.536 3.62 0 0 0 3.532-3.618a3.536 3.62 0 0 0-3.532-3.617m-56.361.242c-.566 0-1.004.167-1.334.278c-.33.11-.551.164-.674.164c-.47 0-.957.276-1.203.572s-.347.58-.424.83c-.156.503-.229.965-.26 1.047c-.206.533-.01.94.13 1.178c.038.066.08.115.12.172h3.16a11 11 0 0 1-.459-.32c-.358-.264-.707-.541-.9-.735v-.01c.063-.26.137-.572.182-.719c.005-.016.004-.002.01-.015c.366-.054.733-.127.976-.21c.332-.111.562-.163.676-.163q.169-.002.666.164c.243.082.613.155.978.209c.005.013.003 0 .008.015c.046.147.128.457.19.72l-.008.009c-.193.194-.54.471-.899.734a16 16 0 0 1-.45.32h3.16c.04-.055.082-.106.119-.171c.14-.238.337-.645.13-1.178c-.03-.081-.113-.544-.27-1.047a2.2 2.2 0 0 0-.423-.83c-.246-.296-.723-.572-1.193-.572q-.183.001-.676-.164c-.33-.111-.766-.278-1.332-.278m45.119 4.657c-.59 0-1.05.176-1.403.295s-.597.18-.744.18c-.482 0-.976.275-1.23.58c-.252.303-.359.602-.44.866c-.164.528-.246 1.023-.285 1.125c-.209.54-.006.95.137 1.194c.144.246.31.42.486.598c.353.353.781.688 1.211 1.003c.355.26.701.496.996.694c-.195.155-.454.367-.928.527c-.34.115-.656.142-.908.078c-.184-.047-.391-.261-.597-.492c.016-.127.02-.135.043-.295c.06-.425.145-.952.173-1.064l-2.007-.502c-.092.368-.155.834-.217 1.279c-.062.447-.104.832-.104.832l-.043.363l.2.313c.533.838 1.277 1.379 2.04 1.574c.765.195 1.486.071 2.079-.129a6.1 6.1 0 0 0 1.523-.789c.358.252.887.573 1.524.79c.593.2 1.312.323 2.076.128c.765-.195 1.509-.736 2.043-1.574l.2-.313l-.044-.363s-.051-.384-.113-.83c-.061-.446-.123-.913-.215-1.281l-2.008.502c.028.112.123.64.182 1.064c.02.16.017.168.033.295c-.205.23-.405.445-.588.492c-.252.064-.57.037-.91-.078c-.46-.156-.713-.364-.908-.52c.3-.198.65-.436 1.013-.7c.43-.316.858-.65 1.211-1.004a3 3 0 0 0 .485-.598c.144-.245.338-.655.13-1.194c-.04-.102-.123-.597-.287-1.125c-.08-.264-.18-.563-.431-.867c-.254-.304-.747-.58-1.229-.58c-.146 0-.39-.06-.744-.18c-.353-.12-.812-.294-1.402-.294m0 2.068q.204.001.736.182a6 6 0 0 0 1.082.224c.013.028 0 .01.015.06c.054.175.141.511.217.815l-.035.035a9 9 0 0 1-.969.795c-.505.37-.744.51-1.046.701c-.3-.19-.54-.329-1.047-.7a9 9 0 0 1-.971-.796c-.022-.023-.014-.024-.033-.045c.074-.298.154-.632.207-.804c.016-.053.012-.033.025-.06a6 6 0 0 0 1.074-.225c.355-.12.607-.182.744-.182z"/><path fill="#892ca0" d="M45.491 35.775a6.08 6.08 0 0 0-4.382 1.866a6.36 6.36 0 0 0-1.535 2.595a6.4 6.4 0 0 0-.27 2.198a6.4 6.4 0 0 0 2.721 4.923a6.2 6.2 0 0 0 1.335.701a6.06 6.06 0 0 0 4.55-.11a6.1 6.1 0 0 0 1.531-.954a6.3 6.3 0 0 0 1.36-1.607a6.4 6.4 0 0 0 .826-4.236a6.4 6.4 0 0 0-.827-2.317a6.4 6.4 0 0 0-1.837-1.973a6.2 6.2 0 0 0-1.336-.7a6 6 0 0 0-2.134-.386zm33.47 0a6.1 6.1 0 0 0-2.132.389a6 6 0 0 0-1.577.878a6.3 6.3 0 0 0-1.43 1.538a6.4 6.4 0 0 0-.932 4.8a6.4 6.4 0 0 0 1.688 3.2a6.3 6.3 0 0 0 1.428 1.096a6.1 6.1 0 0 0 1.705.64a6 6 0 0 0 1.885.097a6.06 6.06 0 0 0 3.31-1.422a6.3 6.3 0 0 0 1.506-1.872a6.4 6.4 0 0 0 .715-3.652a6.4 6.4 0 0 0-.864-2.63a6.4 6.4 0 0 0-2.086-2.138a6.2 6.2 0 0 0-1.665-.722a6 6 0 0 0-1.55-.202zm-33.47 2.06h.002a4 4 0 0 1 .63.048a4 4 0 0 1 1.343.462a4.1 4.1 0 0 1 .956.732a4.2 4.2 0 0 1 .89 1.358a4.3 4.3 0 0 1 .321 1.453a4.6 4.6 0 0 1-.182 1.504a4.3 4.3 0 0 1-.761 1.45a4.2 4.2 0 0 1-1.224 1.035a4.07 4.07 0 0 1-2.603.46a4.06 4.06 0 0 1-2.562-1.497a4.3 4.3 0 0 1-.76-1.45a4.4 4.4 0 0 1-.186-1.28a4.5 4.5 0 0 1 .187-1.28a4.3 4.3 0 0 1 .76-1.449a4.2 4.2 0 0 1 1.22-1.034a4.1 4.1 0 0 1 1.757-.506q.105-.005.212-.005zm33.47 0a4.1 4.1 0 0 1 1.23.191a4 4 0 0 1 1.4.779a4.2 4.2 0 0 1 1.008 1.258a4.3 4.3 0 0 1 .479 1.607a4.47 4.47 0 0 1-.48 2.489a4.3 4.3 0 0 1-1.007 1.258a4.2 4.2 0 0 1-1.02.636a4.03 4.03 0 0 1-3.218 0a4.1 4.1 0 0 1-1.315-.911a4.2 4.2 0 0 1-.888-1.358a4.3 4.3 0 0 1-.32-1.452a4.5 4.5 0 0 1 .079-1.09a4.4 4.4 0 0 1 .623-1.532a4.3 4.3 0 0 1 1.118-1.15a4.1 4.1 0 0 1 1.279-.591a4 4 0 0 1 1.032-.134M29.688 75.527a1 1 0 0 0-.112.001c-2.295.12-4.111 2.074-4.111 4.414c0 2.416 1.937 4.423 4.336 4.423s4.344-2.007 4.344-4.423s-1.945-4.414-4.344-4.414zm21.413 0a1 1 0 0 0-.113.001c-2.295.12-4.12 2.074-4.12 4.414c0 2.416 1.946 4.423 4.345 4.423s4.336-2.007 4.336-4.423s-1.937-4.414-4.336-4.414zm-21.3 2.07c1.254 0 2.275 1.021 2.275 2.345s-1.021 2.354-2.275 2.354s-2.269-1.03-2.269-2.354s1.015-2.345 2.269-2.345m21.412 0c1.254 0 2.268 1.021 2.268 2.345s-1.014 2.354-2.268 2.354s-2.276-1.03-2.276-2.354s1.022-2.345 2.276-2.345m22.953 2.198c-2.525 0-4.57 2.111-4.57 4.656c0 2.546 2.045 4.657 4.57 4.657s4.57-2.11 4.57-4.657c0-2.545-2.044-4.656-4.57-4.656m22.893 0c-2.525 0-4.57 2.111-4.57 4.656c0 2.546 2.045 4.657 4.57 4.657s4.57-2.11 4.57-4.657c0-2.545-2.044-4.656-4.57-4.656m-22.957 2.068l.065.001c1.38 0 2.5 1.134 2.5 2.587s-1.12 2.588-2.5 2.588s-2.502-1.134-2.502-2.588c0-1.408 1.05-2.52 2.372-2.587zm22.892 0l.066.001c1.38 0 2.5 1.134 2.5 2.587s-1.12 2.588-2.5 2.588s-2.502-1.134-2.502-2.588c0-1.408 1.05-2.52 2.372-2.587z"/><path fill="#fff" d="M43.77 37.973a2.543 2.644 0 0 0-2.545 2.64a2.543 2.644 0 0 0 2.545 2.65a2.543 2.644 0 0 0 2.545-2.65a2.543 2.644 0 0 0-2.545-2.64m33.453 0a2.543 2.644 0 0 0-2.545 2.64a2.543 2.644 0 0 0 2.545 2.65a2.543 2.644 0 0 0 2.543-2.65a2.543 2.644 0 0 0-2.543-2.64M28.7 77.303a1.626 1.687 0 0 0-1.625 1.687a1.626 1.687 0 0 0 1.627 1.688a1.626 1.687 0 0 0 1.627-1.688a1.626 1.687 0 0 0-1.627-1.687zm21.62.242a1.626 1.687 0 0 0-1.626 1.688a1.626 1.687 0 0 0 1.627 1.687a1.626 1.687 0 0 0 1.629-1.687a1.626 1.687 0 0 0-1.63-1.688m22.67 4.086a1.739 1.804 0 0 0-1.74 1.799a1.739 1.804 0 0 0 1.74 1.808a1.739 1.804 0 0 0 1.74-1.808a1.739 1.804 0 0 0-1.74-1.799m23.247.232a1.739 1.804 0 0 0-1.74 1.81a1.739 1.804 0 0 0 1.74 1.8a1.739 1.804 0 0 0 1.74-1.8a1.739 1.804 0 0 0-1.74-1.81"/></svg>