<svg xmlns="http://www.w3.org/2000/svg" width="128" height="128" viewBox="0 0 128 128"><path fill="#3f526b" d="m111.83 115.45l.272-6.577h2.725l.7 4.164a9.6 9.6 0 0 0 3.347.623q3.347-.001 4.593-2.18q.428-.74.428-1.926a3.46 3.46 0 0 0-.72-2.14q-.72-.954-2.374-1.772a51 51 0 0 0-3.268-1.478a14.8 14.8 0 0 1-2.918-1.577a7.7 7.7 0 0 1-2.141-2.257q-.838-1.342-.838-3.23q.001-1.887.682-3.173a6.65 6.65 0 0 1 1.849-2.178q2.45-1.869 5.993-1.869q3.425 0 6.577 1.168l.545 6.694h-2.685l-1.712-4.203q-1.168-.39-2.939-.39q-1.77 0-2.997.818t-1.227 2.49q.001 1.946 1.946 3.192q.857.584 1.908 1.032q1.05.447 2.432 1.07q1.382.621 2.589 1.478q1.206.857 1.946 1.79q1.4 1.752 1.4 4.01c0 2.258-.254 2.743-.759 3.716a6.8 6.8 0 0 1-2.043 2.392q-2.412 1.79-6.383 1.79q-3.969 0-6.927-1.479zm-19.732 0l.272-6.577h2.725l.7 4.164a9.6 9.6 0 0 0 3.347.623q3.347-.001 4.593-2.18q.428-.74.428-1.926a3.46 3.46 0 0 0-.72-2.14q-.72-.954-2.374-1.772a51 51 0 0 0-3.271-1.478a14.8 14.8 0 0 1-2.919-1.577a7.7 7.7 0 0 1-2.14-2.257q-.838-1.342-.838-3.23t.682-3.173a6.7 6.7 0 0 1 1.85-2.178q2.45-1.869 5.993-1.869q3.425 0 6.577 1.168l.545 6.694h-2.686l-1.712-4.203q-1.167-.39-2.938-.39q-1.77 0-2.997.818t-1.227 2.49q.001 1.946 1.946 3.192q.857.584 1.908 1.032q1.05.447 2.432 1.07q1.382.621 2.59 1.478q1.204.857 1.945 1.79q1.4 1.752 1.4 4.01c0 2.258-.254 2.743-.759 3.716a6.8 6.8 0 0 1-2.043 2.392q-2.412 1.79-6.382 1.79t-6.928-1.479zm-3.114-.272q-2.451 1.75-6.888 1.75q-5.37 0-9.185-3.424q-4.163-3.775-4.164-9.885q0-6.462 3.97-10.274q3.619-3.464 9.185-3.464q2.49 0 5.76.74l.739 7.083h-2.647L84.237 93.5q-.74-.273-2.569-.273a8 8 0 0 0-3.522.817a8.7 8.7 0 0 0-2.86 2.18q-2.453 2.88-2.453 7.005q.001 4.476 2.686 7.395q2.726 2.956 7.239 2.957q1.674 0 3.074-.506t2.024-.973z"/><path fill="#dd3a0a" d="M63.99 11.08a19 19 0 0 0-1.937.178c-.623.067-1.247.179-1.848.27c-.733.088-1.468.132-2.203.222c-.69.09-1.402.224-2.092.336c-.245.045-.49.132-.736.176c-.533.111-1.09.157-1.625.336c-.956.29-1.913.627-2.848.982c-.869.357-1.716.736-2.539 1.182c-.846.467-1.648 1.022-2.45 1.558a38 38 0 0 0-2.25 1.627c-.71.559-1.378 1.183-2.025 1.807c-.355.355-.646.78-.98 1.182c-.556.647-1.112 1.27-1.646 1.939c-.444.558-.847 1.138-1.27 1.719c-.756 1.023-1.401 2.116-2.002 3.209c-.245.446-.467.893-.69 1.338c-.334.668-.69 1.314-1.001 2.005a8.5 8.5 0 0 0-.535 1.495a198 198 0 0 0-.913 3.298c-.267.982-.334 2.009-.355 3.012c-.023.892.065 1.76.154 2.653c.023.223-.11.49.156.667c-.088.246-.022.382.11.424c-.154.246.068.402-.02.625c-.023.044.067.135.11.201c0 .068-.021.156 0 .223c.023.2.113.402.113.625c0 .156.133.334.178.49c.022.066 0 .178-.045.223c-.134.156-.113.29.088.379c.112.29.069.423.047.559c.044.2-.023.265 0 .31c.177.357.244.76.265 1.16c0 .09.045.178.09.29c.022 0 0 .423 0 .423c.11-.066.2-.088.31-.133c.068.29.134.558.223.803c.112.178.113.267.069.29c.088.4.132.778.287 1.157c0-.423-.042-.846-.11-1.248c.312.112.58.223.758.223c.023-.068.044-.156.067-.201c-.134-.133-.246-.333-.38-.467c.045.178 0 .247 0 .314a4 4 0 0 0-.31-.136c.089-.11.177-.223.31-.356c0-.201-.108-.38-.421-.357c.133-.044.266-.11.422-.156c.245-.133-.022-.378-.022-.69c.022-.378-.2-.758-.267-1.16c-.112-.624-.09-1.56-.157-2.184c-.133-.111-.243.179-.265.202c.067.534.133 1.067.177 1.603c-.132-.446-.223-.935-.334-1.47c-.022.156-.044.222-.044.312c-.11.11-.022.245.044.4c-.155-.067-.334-.043-.334-.043v.623c-.221-.223-.287-.399-.4-.556c-.044-.178-.067-.356-.11-.534c.043-.112 0-.18 0-.246a14 14 0 0 1-.068-.537c.022-.022-.021-.355-.021-.355c.178.02.29.043.4.043c-.222-.288-.067-.466.024-.645c.045-.09.199-.11.244-.201c.177-.334.469-.6.469-1.025c0-.2.066-.424.087-.625c.045-.38.09-.758.112-1.137c.045-.49-.001-.981.111-1.45a32 32 0 0 1 .647-2.341c.177-.558.38-1.09.601-1.649c.334-.87.645-1.74 1.069-2.564c.6-1.205 1.29-2.364 1.959-3.545c.423-.736.869-1.427 1.337-2.14c.445-.692.89-1.404 1.403-2.051a18 18 0 0 1 2.36-2.52c.89-.802 1.736-1.627 2.692-2.363a27 27 0 0 1 3.963-2.543c1.137-.6 2.316-1.072 3.496-1.518c.758-.289 1.58-.422 2.36-.668a9.4 9.4 0 0 1 2.717-.445c.6-.023 1.178-.09 1.779-.156a46 46 0 0 0 1.648-.156c-.067.088-.089.133-.111.177c-.244.357-.51.714-.756 1.07c-.2.29-.422.604-.623.893c-.357.47-.737.937-1.07 1.428c-.512.736-.98 1.493-1.514 2.228c-.533.714-1.113 1.384-1.67 2.075c-.734.96-1.426 1.94-2.16 2.898c-.668.914-1.379 1.786-2.025 2.7c-.579.8-1.09 1.649-1.647 2.472c-.823 1.227-1.647 2.43-2.47 3.656c-.647.936-1.292 1.85-1.96 2.787c-.044.068-.111.088-.177.133c-.178.29-.179.447-.246.58c-.178.334-.356.668-.557.98c-.112.178-.267.334-.4.512c-.022-.267.355-.4.177-.736c-.11.18-.223.335-.334.514l-.267.533c.087.067.238.112.094.24c-.015-.052-.09-.088-.147-.13q-.266.367-.533.802c.134.11.2.069.289-.088c.078-.156.19-.278.291-.41q-.052.099-.106.19a.8.8 0 0 0 .245-.223c0 .245-.133.444-.245.644c-.088.178-.31.313-.466.446c.022.022.176.09.199.113c.2-.068.268-.18.29-.113c.069-.09.135-.156.157-.223c.088-.223.221-.4.444-.49c.09-.045.155-.112.222-.178c.669-.692 1.359-1.36 1.96-2.096c.935-1.138 1.781-2.32 2.673-3.478c.377-.49.822-.98 1.223-1.45c.066.513.022 1.004 0 1.473c-.068.824-.112 1.65-.178 2.496c-.023.335.001.667-.022 1.002c0 .09-.068.157-.068.246c0 .223.068.468.068.692c-.067.825-.157 1.626-.224 2.451c-.023.178.065.357.11.514c-.11 1.203.136 2.475-.065 3.746c.155-.246.199-.401.199-.557c.021-.134 0-.268 0-.424v-.222c.021-.402.11-.825.066-1.227c-.044-.446-.044-.869.045-1.293c.045-.178-.022-.402.09-.625v.334c-.022 1.27.024 2.542-.154 3.813c-.023.111.067.311-.178.289c-.201.4.044.691-.178.914c-.045.045.042.245.065.379c-.09.268-.089.269.045.29c.022.491.066.936.088 1.405c.355-.846.178-1.718.336-2.588c.022.357.044.714.021 1.092c0 .581-.023 1.137-.045 1.717c0 .111-.023.224-.045.336c-.067.313-.087.624-.199.914c-.089.223-.045.557-.045.824v.847c.089.38-.022.58.045.803c-.068.224-.09.29-.068.358l.068.334c.446-.045.244.29.422.468c-.134.18-.088.246-.088.336c0 .2-.022.38-.045.58c0 .513-.021 1.025-.021 1.516c0 .068.021.132.021.2c0 .045-.021.626-.021.626c.044.066-.001.133-.069.2c-.02 0-.088-2.833-.088-2.833h-.334c-.044 1.337.068 2.542-.177 3.791c-.268.022-.356.067-.647.067c-.69 0-1.38 0-2.07.021c-.824 0-1.625.022-2.45.022c-.399 0-.823.045-1.224.045c-.535 0-1.09-.067-1.623-.067c-.825 0-1.627.068-2.451.09c-.6.022-1.2.022-1.801.045c-.402.021-.804.042-1.203.088c-.178.022-.334.087-.557.154c-.067 0-.222-.022-.355 0c-.224.045-.424.18-.649.225c-.334.068-.423.155-.379.49v.223c-.022.044.49-.069.49-.069c-.045 0-.066.135-.134.246c.18-.067.29-.112.402-.156c.334.157.624.07.89.137c.869.222 1.757.311 2.647.398c.58.045 1.136.07 1.715.09c.823.045 1.648.09 2.47.09c.691 0 1.361-.068 2.05-.068c.956 0 1.914.044 2.87.068c.201 0 .425-.023.647-.023h1.623c1.449-.044 2.896-.07 4.344-.112c.825-.023 1.671-.067 2.494-.09l2.537-.068c.98-.022 1.96-.02 2.918-.04c.735 0 1.448-.027 2.184-.048c.822-.022 1.668-.089 2.492-.133c.446-.022.891-.067 1.336-.11c.535-.045 1.092-.11 1.625-.134c.802-.045 1.626-.068 2.428-.113c1.001-.066 2.003-.155 3.027-.178c.936-.044 1.893-.02 2.828-.043c.824-.023 1.648-.068 2.494-.09l.936-.044l1.65 9.15c-.098.07-.193.14-.293.21c-.733.514-1.468 1.026-2.203 1.516c-.4.267-.846.468-1.27.713c-.422.246-.824.469-1.247.713c-.268.178-.512.423-.801.559c-.735.313-1.515.579-2.272.869c-.736.313-1.27.58-1.826.781a13 13 0 0 1-1.58.422c-.178.046-.38 0-.58.024c-.379.067-.756.157-1.135.2c-.98.134-1.96.224-2.94.358c-.579.068-1.135.177-1.714.244c-.4.022-.824-.021-1.225-.021c-.289 0-.6.068-.89.023c-.467-.067-.935-.178-1.403-.267c-.11-.022-.267-.068-.355-.022c-.178.09-.335-.044-.514 0c-.11.023-.22-.068-.332-.068c-.09-.021-.203.023-.314 0c-.246-.066-.468-.155-.737-.133c-.264.022-.532-.112-.82-.178c-.402-.09-.779-.177-1.182-.267a2 2 0 0 1-.443-.201c-.58 0-.958-.022-1.314-.157c-.312-.11-.602-.267-.936-.222c-.088.022-.153-.022-.244-.022c-.068-.09-.133-.267-.2-.267c-.444.022-.712-.357-1.091-.47c-.2-.067-.356-.288-.557-.355c-.49-.2-.888-.624-1.445-.691c-.178-.023-.355-.112-.557-.178c.068.088.11.156.178.223c-.645-.313-1.246-.67-1.848-1.004c-.088-.022-.155-.11-.222-.156l-.6-.4c-.334.067-.468-.068-.558-.112c-.601-.423-1.292-.692-1.871-1.16c-.246-.202-.534-.335-.711-.58c-.313-.38-.69-.647-1.114-.87c-.333-.177-.645-.379-.957-.58c-.156-.111-.312-.244-.312-.49c0-.156-.065-.312-.266-.222c-.089-.134-.177-.29-.289-.334c-.267-.11-.446-.315-.646-.493c-.2-.177-.355-.422-.6-.511c-.446-.178-.714-.555-.98-.867c-.625-.737-1.182-1.54-1.76-2.319c-.045-.068-.135-.113-.201-.18c.088.246.201.446.312.668c-.222-.088-.378-.244-.512-.4c-.022.023 1.535 2.586 1.535 2.586c.136.2.246.401.38.602a.69.69 0 0 1-.669-.358c-.2-.355-.422-.577-.867-.531a4 4 0 0 1-.111-.492c-.09 0-.156.001-.313-.022c.313.49.58.914.87 1.405c-.113-.068-.179-.113-.225-.135c.4.423.69.958 1.201 1.226c.112.512.69.758.824 1.248c-.11-.022-.2-.043-.312-.066c-.178-.223-.379-.446-.578-.691q.066.233.199.402c.267.334.513.667.824.957c.112.113.268.159.268.36c.177.088.244.109.31.109c.046.135-.02.336.246.29c.178.335.357.336.602.225c.29.29.447.313.646.135c0 .11.022.22.022.31c.089-.044.068-.11.068-.222c.11.089.177.134.221.178c.222.313.423.602.734.847c.423.357.802.736 1.202 1.07c.78.648 1.65 1.183 2.517 1.673c1.07.602 2.093 1.249 3.184 1.828c1.313.692 2.717 1.162 4.164 1.496c.534.111 1.046.22 1.582.353c.465.136.932.337 1.4.448c.713.156 1.448.29 2.16.423c.155.023.313.045.49.067c.2.045.444-.044.489.023c.112.178.2.089.334.067c.155-.045.334-.045.512-.045c.623.022 1.224.155 1.847.111c.136 0 .336-.113.447.11c.2-.09.312-.089.4-.11c.025.2 0 .2-.042.223c-.046.022-.112.044-.201.111c.8.156 1.558.178 2.224 0c1.16.089 2.162-.045 3.12-.379c.088.112.155.268.289.045c.044-.068.156-.091.246-.113c.2-.045.445-.135.623-.069c.201.068.267-.109.422-.109c.268 0 .512-.024.757-.068c.134-.022.269-.088.424-.133a1.1 1.1 0 0 0-.49-.113c.268-.134.512-.246.758-.356c-.045.066-.09.156-.178.156h.31c-.067 0-.156.2-.267.334c.8-.2 1.535-.379 2.248-.558c-.245-.467.267-.31.445-.578a7 7 0 0 1-.67.177c.758-.378 1.537-.712 2.293-1.047c-.11.134-.244.2-.443.313c.134.021.222.022.29.043c.354.112.267-.223.378-.424c.423 0 .6-.065.8-.133c.223-.067.445-.134.669-.222c.355-.156.69-.356 1.047-.534c.067-.023.176 0 .265 0c.246-.157.334-.291.4-.27c.314.046.534-.067.624-.355l.064-.046c.09.197.267.219.557.02c-.179 0-.356-.022-.512-.044c-.016 0-.022.01-.031.016c.11-.082.213-.161.3-.215c.49-.267.955-.534 1.446-.8c.178 0 .268-.001.312-.024a10 10 0 0 0 .825-.446a2 2 0 0 1-.223-.111c.162-.033.226-.056.31-.082l.022.12l.002.001l-.022-.121c.03-.01.076-.018.112-.03c.533-.625 1.268-1.05 1.824-1.54c.245-.022.246-.09.246-.133c.088-.112.177-.244.287-.334c.49-.446 1.025-.825 1.47-1.293a32 32 0 0 0 1.849-2.008c.533-.624 1.068-1.248 1.513-1.94c.624-.958 1.158-1.94 1.715-2.945c.401-.712.756-1.425 1.158-2.138c.043-.068.133-.157.2-.157c.6-.067 1.204-.11 1.783-.177c.133-.022.288-.11.422-.178c-.068-.112-.112-.246-.178-.357c-.09-.136-.223-.244-.313-.38c-.088-.11-.155-.245-.222-.378c-.068-.11-.133-.2-.2-.313a8 8 0 0 1-.38-.758c-.022-.067-.069-.176-.045-.244c.4-.869.557-1.806.935-2.676c.378-.891.49-1.894.668-2.853c.156-.914.246-1.829.356-2.742c.067-.647.156-1.27.177-1.916c.136-1.026.09-1.986.069-2.946c-.022-.846-.07-1.714-.112-2.562l-.001-.004c-.044-.87-.065-1.738-.155-2.607c-.155-1.182-.313-2.386-.58-3.545c-.2-.959-.532-1.874-.867-2.787c-.423-1.07-.846-2.163-1.38-3.188c-.869-1.65-2.005-3.122-3.052-4.66c-.692-.981-1.581-1.784-2.25-2.787c-.378-.58-.935-1.069-1.492-1.514c-.89-.715-1.825-1.363-2.76-1.986a28 28 0 0 0-2.183-1.383c-.6-.336-1.246-.602-1.87-.893c-.712-.334-1.403-.736-2.204-.892c-.202-.042-.378-.11-.579-.178c-.511-.178-1.003-.377-1.515-.533c-.779-.245-1.536-.535-2.338-.736a21 21 0 0 0-2.379-.448c-.89-.13-1.804-.176-2.695-.263a23 23 0 0 0-1.713-.157c-.846-.044-1.715-.044-2.56-.066c-.424-.023-.869-.068-1.292-.045m1.906 2.584c.29.046.56.089.827.111l1.068.069c.801.065 1.602.109 2.402.219c.669.09 1.337.225 2.028.335c1.47.246 2.917.648 4.32 1.116c.824.267 1.624.624 2.428.959c1.802.736 3.517 1.626 5.209 2.562c.533.29.846.758 1.246 1.182c.58.602 1.159 1.204 1.715 1.828c.644.736 1.244 1.494 1.869 2.252c.556.668 1.135 1.338 1.693 2.008c.178.2.313.445.467.668c.355.535.757 1.048 1.068 1.627c.222.424.356.916.512 1.384c.222.692.445 1.36.668 2.051c.155.513.287 1.05.398 1.582c.09.358.068.735.178 1.09c.136.47.002.982.137 1.451c.021.045.04.112.064.156c.09.088.157.18.024.313c-.021.022-.021.11 0 .178c.045-.044.066-.09.111-.157c0 .045.022.07.022.09c0 .088-.023.177 0 .266c0 .044.044.11.066.156c.045-.046.089-.069.178-.137c.2.76.222 1.517.222 2.297c0 .736.133 1.473-.177 2.186c.066-.245-.09-.469-.024-.692l.01.006c-.023 0-.156-.136-.178-.158c-.023.068 0 .135-.045.225c-.022-.066-.177-.046-.177-.112c-.023.312.134.626.11.938c.069-.045.334-.069.401-.135a.2.2 0 0 0 .09.045c-.446.335-.335.668-.135 1.049c.044.088.179.267.045.445c-.044.045.023.177.045.29h.065v.042l-.2.069c-.044-.068-.31-.202-.31-.315v1.139c.222.067.222.38.31.537a.7.7 0 0 0 .09-.178l.024.02c-.023.133-.045.268-.09.402c-.044.2-.088.378-.11.578c0 .022.042.067.042.088c-.244.558-.109 1.181-.198 1.76c-.067.423 0 .873-.045 1.318c-.045.38-.136.78-.224 1.158c-.023.068-.068.088-.178.133a1.8 1.8 0 0 0-.021-.69c-.024 0-.314-.156-.336-.156c0 .314.176.737.244 1.092c-.068-.022-.335-.177-.356-.177c-.045.267-.044.622-.066.912c-.023.223-.223.424-.246.67c0 .135.157.222.135.445h.177c0-.445.201-.846.201-1.315h.065c.023.045.09.09.068.112c-.045.245-.135.514-.111.76c0 .133.11.266.068.421a2.2 2.2 0 0 0-.091.47c-.023-.113-.045-.157-.045-.223c-.022 0-.222-.024-.245-.024c-.022.134.156.27.133.38c-.022.023-.043.023-.088.046l-.734-1.072c-.58-.846-1.16-1.694-1.738-2.563a5.4 5.4 0 0 1-.403-.67a31 31 0 0 0-2.293-3.412c-.644-.824-1.159-1.717-1.76-2.584c-.554-.825-1.11-1.627-1.667-2.453c-.2-.267-.445-.513-.623-.803c-.578-.914-1.093-1.85-1.67-2.763c-.491-.76-1.023-1.496-1.535-2.23c-.178-.246-.356-.515-.536-.782a.3.3 0 0 1-.043-.154c-.044-.491-.09-.982-.113-1.45c0-.446.045-.89.045-1.36v-.4c0-.111.022-.201.022-.314c.02-.021.044-.066.066-.088c-.646 0-1.314-.023-1.959 0c-.423.021-.646-.156-.936-.469c-.846-.958-1.468-2.05-2.203-3.076c-.69-.981-1.403-1.942-2.115-2.9c-.58-.78-1.16-1.538-1.738-2.318c-.647-.892-1.27-1.783-1.938-2.674a323 323 0 0 0-2.449-3.211c-.38-.49-.803-.957-1.227-1.47zm-2.064 1.17c.048.008.092.048.137.104c.6.758 1.202 1.538 1.802 2.296c.447.559.892 1.092 1.315 1.672c.512.714 1 1.428 1.514 2.14c.578.826 1.158 1.649 1.714 2.495c.847 1.25 1.649 2.5 2.495 3.748c.623.914 1.247 1.805 1.847 2.719H73.52c-1.046-.021-2.117-.11-3.163-.067c-1.424.068-2.87.225-4.294.336c-1.804.157-3.63.178-5.432.178c-.647 0-1.293.09-1.938.135c-.78.044-1.537.09-2.316.111c-.914.046-1.803.067-2.717.09c-.513.022-1.047 0-1.603 0l.002-.004c.71-.981 1.445-1.964 2.158-2.967c.222-.292.4-.603.623-.892c.068-.09.157-.133.267-.223l-.023-.043c.089-.112.178-.203.223-.29c.113-.179.18-.38.27-.581a.3.3 0 0 1 .089-.086c.313.156.312-.178.422-.29c.2-.224.4-.469.578-.692c.134-.178.27-.335.38-.535c.023-.068-.045-.178-.067-.268h-.067c.068-.044.134-.11.201-.156c.022 0 .021 0 .043-.022c.134-.201.269-.401.403-.58c.266-.355.555-.712.867-1.023a4 4 0 0 1-.135.31c.023 0 .023.024.045.024c.267-.357.557-.691.824-1.05c-.023-.02-.045-.044-.068-.044c-.11.112-.2.224-.31.336c-.023-.023-.045-.045-.07-.045c.225-.29.45-.58.67-.914c.046.068.089.155.177.334c.09-.223.18-.379.246-.535c-.066.067-.154.133-.221.2l-.068-.066l.4-.601c.423-.602.846-1.226 1.27-1.828c.156-.223.354-.402.49-.625c.423-.846 1.092-1.517 1.603-2.297c.112-.156.267-.288.4-.422c.056-.068.106-.09.153-.082m-6.277 8.684c-.133.088-.246.156-.38.246h-.001c-.023.022-.044.023-.022.023c.023.11.021.199.043.354c.157-.225.267-.4.403-.578zM76.344 32.7c.2 0 .312.069.424.246c.2.334.4.67.623 1.004c.022.044.066.11.066.178c0 .49 0 1.003.022 1.494c.02.513.069 1.003.09 1.516c0 .512-.047 1.047-.024 1.582c.023.759.045 1.54.045 2.318l.004.002v.201c-.022 0-.045.024-.09.024c-.089-.313-.177-.65-.29-.961c-.222-.648-.467-1.295-.868-1.873c-.447-.624-.845-1.27-1.291-1.916c-.11-.157-.269-.291-.403-.424c-.468-.514-.934-1.05-1.535-1.428a18 18 0 0 0-2.785-1.428a6 6 0 0 1-.777-.4h.533l3.807-.068c.824-.022 1.626-.022 2.449-.067m-16.719.582c.161-.002.322.002.488.024c-.355.179-.712.357-1.023.58c-.401.267-.778.624-1.18.914a6.7 6.7 0 0 0-1.092 1.025c-.423.512-.89.959-1.336 1.45c-.313.356-.669.69-.935 1.07c-.378.49-.712 1.023-1.068 1.582c.111-2.119.245-4.213.156-6.354h.002c1.046-.045 2.047-.111 3.072-.156c.8-.045 1.625-.067 2.426-.111c.167-.01.329-.021.49-.024m5.586 1.139c.666.021 1.334.021 2.002.066a3.4 3.4 0 0 1 .824.178a8 8 0 0 1 1 .424c.378.203.735.424 1.092.67c.645.423 1.247.89 1.892 1.27c.624.378 1.113.892 1.514 1.472c.49.69 1.047 1.315 1.27 2.162l.334 1.473c.067.267.223.534.156.845c-.113.559-.202 1.138-.291 1.696c-.044.224-.09.448-.067.668c.043.693-.223 1.293-.49 1.918c-.09.2-.223.402-.334.625c.022.022.156.09.178.09l.201-.4c.023 0 .023-.002.045.02c-.112.312-.202.647-.314.96c-.266.69-.533 1.405-.868 2.074c-.177.379-.489.69-.71 1.049c-.222.311-.401.645-.624.935c-.2.246-.4.49-.667.668c-.601.446-1.226.891-1.872 1.248c-.4.246-.867.38-1.312.492l.006-.004c-.713.178-1.448.38-2.184.47c-.623.089-1.268.068-1.914.068c-.58 0-1.136-.023-1.715-.069c-.645-.066-1.292-.133-1.916-.424c-.535-.245-1.09-.468-1.623-.736c-.536-.267-1.07-.578-1.472-1.068c-.288-.358-.69-.647-1.045-.96c.067.268.221.492.466.647c-.111.134-.266.067-.49-.29c-.066.044-.133.067-.178.089c.068-.156.135-.312.202-.445c-.09-.178-.203-.38-.291-.559c-.178-.29-.356-.6-.512-.89c-.045-.068-.044-.135-.088-.202a5 5 0 0 1-.312-.402c-.178-.267-.335-.556-.557-.824c0 .067.023.135.023.224c-.023 0-.045.022-.045.022l-.468-1.137c-.022 0-.023 0-.045.022l.4 1.472c-.022 0-.045.022-.068.022a1.4 1.4 0 0 1-.178-.29c-.044-.179-.177-.177-.287-.11c-.068.044-.113.2-.09.267c.157.379.335.758.514 1.137c.044.133.087.245.154.379c.023.044.09.089.09.156c.09.178.157.354.267.512c.201.267.423.535.623.802c.2.268.379.558.557.825c.022.044.088.045.11.068c.112.334.49.579.757.445c.068.513.624.691.846 1.182a10 10 0 0 1-.645-.291c-.022.022-.024.045-.046.09c.267.133.535.266.779.422c.224.135.446.269.646.423c.268.246.58.381.957.47a.24.24 0 0 0-.043-.093c.623.29 1.27.604 1.758.848c-2.315.046-4.786.09-7.347.135c0-.423-.022-.826-.022-1.25c0-.178.044-.333.022-.512c-.068-1.024-.069-2.051-.202-3.055c-.132-1.07-.132-2.117-.109-3.19c.021-.577-.024-1.178-.047-1.759c0-.78 0-1.54.024-2.318c0-.112.045-.2.09-.313h.068c.021.046 0 .112.043.135c.067.068.178.178.222.156c.133-.09.335-.177.38-.312c.11-.267.156-.557.156-.824c0-.2.09-.335.177-.47c.046-.067.067-.133.112-.222c-.09-.068-.178-.11-.29-.2c.09-.244.069-.536.403-.669c.044-.023.045-.135.068-.201c.021-.18.041-.381.065-.559c.044.068.069.09.111.133c.024-.044.045-.066.045-.066c0-.088-.022-.268 0-.268c.267-.045.155-.333.29-.467c.02-.023-.022-.092-.022-.136s0-.11.021-.11c.31-.068.266-.402.467-.558c.068-.045.089-.11.178-.223c.177.311-.135.469-.157.691c.378-.222.49-.757.268-.914c.089-.067.176-.156.244-.246c.245-.267.511-.512.734-.78c.157-.199.247-.445.403-.646c.09-.111.267-.2.4-.267c.401-.222.778-.467 1.024-.846c.044-.045.111-.09.177-.135c.068-.044.201-.044.223-.111c.023-.044-.043-.156-.088-.223c.088-.044.178-.133.356-.222c-.068.133-.09.223-.135.312l.111.112c.202-.156.513-.334.713-.467c0-.021-.111-.112-.111-.112c-.133.068-.334.178-.533.268c.042-.068.04-.11.066-.133c.31-.2.623-.401.957-.558c.778-.356 1.559-.713 2.338-1.047c.134-.068.312-.022.467-.022a.5.5 0 0 0 .177-.023c.356-.112.713-.223 1.069-.313c.155-.044.334-.066.492-.066m-.867.332c-.245.112-.444.2-.645.289h-.002c0 .023-.11.201-.09.201c.112-.022.359-.2.493-.223c.066 0 .155.023.222.045c0-.09 0-.178.022-.312m16.097 3.795c.223.29.468.56.623.847c.513.938 1.18 1.74 1.803 2.586c.535.736 1.025 1.54 1.516 2.297c.6.914 1.18 1.827 1.781 2.74a68 68 0 0 0 1.379 2.053c.423.601.87 1.182 1.314 1.762c.378.513.779 1.026 1.157 1.539c.446.624.89 1.247 1.336 1.85c.221.311.467.623.71.935c.136.178.336.314.47.424a.2.2 0 0 1-.089-.023c.068.088.111.156.157.2c.243.133.264.266.134.464c-.022.044-.066.09-.087.136c-.023-.045-.023-.112-.045-.203c-.134.358-.425.18-.625.18c-1.202.023-2.426.021-3.63.021c-1.157 0-2.336.002-3.493.022c-.38 0-.78.088-1.159.111c-.577.028-1.154.04-1.732.055l-1.293-7.166l-.002.004l1.291 7.164c-.334.009-.668.023-1.002.031c-.068 0-.134-.11-.246-.2a1.5 1.5 0 0 1-.133.202c-.024-.044-.068-.087-.113-.154a1 1 0 0 1-.067.176h-.064c-.045-.312-.135-.6-.135-.913c0-.668.069-1.337.09-2.007c.023-.312 0-.6 0-.891c.09.068.155.113.244.178c.044-.087.09-.155.135-.221c0 0-.045-.024-.09-.068c.042-.023.088-.068.088-.09c.022-.068.068-.134.068-.178c0-.156-.046-.289-.068-.422c.022 0 .045 0 .068-.023l.133.668h.067c-.09-.155.2-.29-.045-.467c-.022-.023.023-.158.023-.225c-.068-.132-.11-.264-.178-.443a.5.5 0 0 1 .155-.068c-.09-.044-.156-.088-.223-.11c.223-.201.224-.314.023-.537c.046-.021.088-.02.088-.04c0-.202.001-.404-.043-.602c-.044-.225.068-.49-.267-.625a.7.7 0 0 0 .09.177s-.07.022-.135.067c-.29-.268-.11-.625-.178-1.026c.156.045.268.09.38.135c-.046-.157-.157-.337-.224-.537h-.09v-1.47c0 .022.155.021.245.044c0-.023.021-.045.021-.068c-.067-.089-.157-.178-.246-.29l.045-.044c-.178-.222-.088-.532-.088-.6v-1.56c.224.223-.11.513.223.646v-.222h-.024c-.022-.335-.02-.67-.043-1.004h-.045c-.022.045-.022.068-.044.113h-.043zm.225 10.834v-.004c-.066-.022-.154-.065-.31-.11c.044.089.067.154.09.221c.11-.022.155-.02.199-.043c0-.021.002-.043.021-.064m-37.738-9.01c-.266.312-.51.625-.756.936h-.004c.044.022.11.177.156.222c.245-.334.58-.755.824-1.068c-.022-.021-.2-.068-.22-.09m-1.492 1.094c-.134.2-.466.557-.6.758c.022.022.267-.09.289-.067c.133-.2.267-.424.4-.625a.4.4 0 0 1-.09-.066zm.466.332c-.132.091-.266.204-.4.293c.045.044.045.067.045.111c-.178-.023-.245.069-.334.313c-.022.067-.133.087-.244.175c-.022.046-.045.16-.09.27l.023.023c-.044.045-.111.069-.111.069c-.134.133-.29.244-.424.377c-.022.067-.045.134-.045.2c.157-.155.425-.446.625-.624l.022.023c.089-.133.156-.266.246-.4c.021.022.022.043.045.066c-.068.178-.135.378-.201.557c-.047.022-.114.068-.114.045c-.089.068-.156.156-.246.223l-.4.267c-.223.2-.444.377-.69.578c-.155.246-.31.468-.49.758c.268-.068.335.046.313.27c.311.044.333-.2.422-.38c.022-.045.045-.136.09-.158c.2-.177.421-.333.644-.511c.045-.045.045-.135.045-.201c0-.022-.111-.023-.178-.045c.2-.224.49-.6.69-.846c.111-.068.222-.158.222-.225c-.018-.2.092-.276.227-.347c-.106.477-.397.884-.692.968c.09.045.179.089.246.067c.066-.023.11-.135.155-.201l.6-.87l.202-.335l-.09-.088v.002c-.088.155-.178.288-.267.445l-.074-.037l.006-.004c-.09-.068-.112-.134-.112-.156v-.002a1 1 0 0 1 .114-.201c.044 0 .109-.022.109-.022c.09-.156.09-.269.18-.402c-.022-.022-.046-.022-.069-.045m38.633 2.738l-.002.004c-.022.066-.021.132-.021.2c0-.068 0-.136.023-.204m-.023.426v.023c.023.022.023.022.045 0c-.022 0-.023 0-.045-.023m0 .045c-.065.022-.131.022-.221.045c.11.041.217.064.22.107zm0 .152v.004l.002-.002zm-3.276 3.908c-.045 2.542.245 5.038.578 7.557l-7.656.268c1.001-.423 1.825-1.025 2.58-1.717a2.6 2.6 0 0 1 .358-.313c.935-.578 1.623-1.381 2.248-2.273c.712-1.026 1.18-2.185 1.76-3.278c.044-.09.087-.176.132-.244m3.162.42l.002.002c.022 0 .043.024.043.024l-.021-.026c0-.02-.002-.02-.024 0m-45.418.07a.6.6 0 0 0-.199.09c.09.223.2.468.29.692a.7.7 0 0 1 .177-.088c-.09-.223-.177-.469-.266-.693h-.002zm-.623.917c-.066.111-.134.222-.11.31c0 .067.11.132.177.2c0-.022.022-.044.045-.065c-.044-.157-.066-.29-.112-.445m1.157.511a.8.8 0 0 0-.2.09c.178.378.356.78.534 1.158c.022 0 .2-.09.2-.09c-.179-.38-.289-.802-.534-1.158m-.444.891c0 .088-.113.065-.113.154c-.131 0-.242-.021-.353-.021c-.022.022.067.157.09.18h.466c0-.113-.023-.201-.023-.313zm20.479.87c.245.378.491.736.758 1.09l-.022.024c-.046-.022-.112-.045-.156-.09l-.535-.802c-.044-.066-.069-.134-.045-.223zM80.4 53.948l-.002.002c-.022.268-.044.468-.044.668c0 .045.045.133.068.133c.044.024.133-.022.178-.043a.17.17 0 0 0 .045-.09c-.067-.046-.134-.067-.202-.113c.423-.223.001-.334-.043-.557m10.159 3.903c.31 0 .644.044 1.045.066c-.178.156-.289.246-.422.357c.088.022.178.068.267.112a.6.6 0 0 1-.355.111c-.046.113-.092.158-.137.38h.402c-.155 0-.29.201-.445.335c-.178-.046-.335-.001-.424.244c.156.088.134.156.112.246c-.268.088-.468.178-.356.467c-.09.044-.2.09-.312.156c-.11.178-.312.222-.268.467c.09.021.178.068.246.088c-.112.045-.222.112-.334.156c-.4.245-.222.357-.133.469a1 1 0 0 1-.2.111c.043.2.11.246.132.246c-.062.046-.149.118-.232.186l.027-.072h-.09c0 .04.01.075.016.11c-.02.018-.033.026-.055.044c-.068.2-.157.288-.246.422c-.089.133-.133.314-.244.447c-.467.514-.802 1.115-1.403 1.516c-.223.156-.422.357-.623.558c-.4.378-.756.803-1.18 1.16c-.463.39-.945.748-1.44 1.102l-1.651-9.148l.467-.024s.934-.023 1.402-.068c.801-.044 1.602-.133 2.404-.155c.511-.022 1.024 0 1.535-.023c.824-.022 1.67-.066 2.495-.066m-48.942 8.716c.243.269.488.536.733.827c.067-.023.135-.023.2-.045c.068.111.113.245.179.379c-.312-.023-.468-.157-.38-.334c-.133-.068-.289-.112-.355-.202c-.156-.177-.29-.379-.445-.556zm43.348 4.194c-.18.042-.314.067-.424.111c-.046.09-.09.155-.135.244c.023 0 .046.023.069.045c.133-.134.288-.245.49-.4m-1.139.623c-.245.156-.512.31-.758.467c.022.022.024.046.047.068c.312-.067.558-.223.803-.4l-.002-.002c-.022-.045-.067-.09-.09-.133M72.92 75.623c-1.024.29-1.357.333-1.469.178c.512-.068.98-.112 1.469-.178m-1.516.2c.023.043.023.088.045.132c-.133 0-.222.047-.334.068v-.002c-.31.068-.645.114-.957.159c-.111.022-.245.133-.289-.069c-.045.023-.089.024-.133.047c.11.334.377.066.6.2c-.49.067-.955.111-1.424.177v-.045c.135-.022.29-.043.422-.066v-.067a7 7 0 0 0-.668-.044c-.065 0-.154.089-.22.11c-.09.023-.18.046-.292.046c-.378.022-.756.023-1.113.045c-.023 0-.068-.024-.09-.024v-.066c1.492-.2 2.962-.401 4.453-.602zm-4.652.577v.067a12 12 0 0 1-1.246.133v-.065c.423-.044.823-.09 1.246-.135M.096 89.873v2.959l2.45.193v20.471l-2.49.545l.39 2.725h11.519l.117-2.608q-4.67-.584-5.643-.777v-6.111h1.79q4.943 0 7.667-1.985q3.076-2.258 3.075-6.81q-.001-3.893-2.492-6.15q-2.763-2.452-8.172-2.452zm61.683.74l-3.113.739v6.5h-3.463l-.273.388l.545 2.53h3.19v11.832q-.001 2.296 1.15 3.308q1.147 1.011 2.822 1.012c1.675.001 2.024-.168 2.724-.506q1.05-.505 1.596-1.012q-.741-2.296-.818-2.57l-.002.002q-.428.35-1.168.662q-.35.195-.739.31q-.39.118-.955.118a1.26 1.26 0 0 1-.931-.37q-.37-.37-.37-1.615V100.77h4.243v-2.684q0-.234-.196-.234h-4.046v-6.655zM6.44 93.221h1.362q7.083-.001 7.084 5.215q-.001 2.413-1.52 3.853q-1.712 1.635-5.29 1.635H6.438V93.22zm40.627 4.627q-2.491 0-4.28 1.324q-1.908 1.44-1.907 3.814q0 2.412 1.752 3.89q.855.702 2.121 1.325a64 64 0 0 0 3.035 1.38q1.77.76 1.77 2.198q0 1.129-.895 1.713a3.1 3.1 0 0 1-.855.352q-.468.117-1.225.117q-.76 0-1.654-.39l-.934-2.257l-4.01 1.518q.584 1.713 2.49 2.88q2.063 1.209 4.243 1.208c1.738 0 3.219-.419 4.437-1.248A5.2 5.2 0 0 0 52.672 114q.584-1.012.584-2.59a4.63 4.63 0 0 0-.973-2.86q-.505-.7-1.42-1.321q-.914-.624-2.627-1.325q-1.711-.7-2.685-1.34q-.974-.642-.973-1.654q0-1.012.74-1.537a2.77 2.77 0 0 1 1.635-.525q.895 0 1.674.388l.894 1.985l3.97-1.518a6.95 6.95 0 0 0-2.296-2.607a7.23 7.23 0 0 0-4.127-1.244l-.002-.004zm-17.627.004q-3.501 0-5.76 2.412q-1.168 1.206-1.83 2.957t-.662 4.01q.001 4.435 2.336 7.042q2.297 2.646 5.916 2.647q3.463 0 5.76-2.49q2.492-2.608 2.49-7.121q0-4.32-2.334-6.89q-2.335-2.567-5.916-2.567m0 2.918q2.102.002 3.327 1.812q1.227 1.809 1.226 5.04q0 3.23-1.285 4.804q-1.283 1.576-3.307 1.576q-2.024.001-3.27-1.615q-1.245-1.614-1.245-4.748t1.129-4.961q1.207-1.908 3.425-1.908"/></svg>