<svg xmlns="http://www.w3.org/2000/svg" width="128" height="128" viewBox="0 0 24 24"><path fill="#8877ff" d="M10.502 22.505h-1v1h1zm-1-1v1h-2v-1H5.5v-1h-1v-1h-1v-1.001h-1v-2h5v3h1v2z"/><path fill="#8877ff" d="M16.503 16.503v2h-1v2.001h-1v2h-1v1.001h-2v-1h-1.001v-2h-1v-2.001h-1v-2zm-1 6.002h-1v1h1zm7.002-6.002v2h-1v1.001h-1v1h-1v1h-2.001v1h-2v-1h1v-2h1v-3zm-6.002-6.001h-2v1h2zm0 2h-2v1h2z"/><path fill="#8877ff" d="M1.5 8.501v7.002h22.005V8.501zm6.001 4.001h-1v2h-1v-2h-1v2h-1v-2h-1v-3h1v3h1v-1h1v1h1v-3h1zm5.001-2h-3v1h2v1h-2v1h3v1h-4v-5h4zm5.002 1h-1v1h1v1h-1v1h-3.001v-5h3v1h1zm5 0h-1v1h1v1h-1v1h-3v-1h3v-1h-2v-1h2v-1h-3v-1h3v1h1zm.001-5.002v1.001h-5.001v-2h-1v-2h-1V2.5h2v1h2v1h1v1h1v1zm-7.002-5h-1v1h1zm1 5.001v1H8.502v-1h1v-2h1v-2h1V1.5h2v1h1.001v2h1v2.001zM10.502 1.5h-1v1h1zm-1 1v1h-1v2h-1v2.001H2.5v-1h1v-1h1v-1h1v-1h2.001V2.5z"/></svg>